<?xml version="1.0" encoding="UTF-8"?>
<svg xmlns="http://www.w3.org/2000/svg" xmlns:xlink="http://www.w3.org/1999/xlink" width="183pt" height="148pt" viewBox="0 0 183 148" version="1.1">
<g id="surface1">
<path style=" stroke:none;fill-rule:evenodd;fill:rgb(100%,100%,100%);fill-opacity:1;" d="M 27.121094 0.539063 L 27.121094 99.074219 C 27.121094 106.859375 28.121094 109.855469 30.515625 114.019531 L 30.648438 114.253906 L 30.800781 114.480469 C 44.683594 135.207031 67.746094 147.578125 92.488281 147.578125 C 117.230469 147.578125 140.289063 135.207031 154.175781 114.480469 L 154.328125 114.253906 L 154.460938 114.019531 C 156.855469 109.859375 157.855469 106.863281 157.855469 99.074219 L 157.855469 0.539063 L 27.121094 0.539063 "/>
<path style=" stroke:none;fill-rule:nonzero;fill:rgb(0%,10.198975%,29.399109%);fill-opacity:1;" d="M 149.984375 82.191406 L 149.984375 99.074219 C 149.984375 105.789063 149.203125 107.371094 147.636719 110.097656 C 135.667969 127.964844 115.433594 139.707031 92.488281 139.707031 C 69.542969 139.707031 49.308594 127.964844 37.339844 110.097656 C 35.773438 107.371094 34.992188 105.789063 34.992188 99.074219 L 34.992188 8.410156 L 149.984375 8.410156 Z M 153.519531 59.867188 L 153.519531 4.875 L 31.453125 4.875 L 31.453125 99.074219 C 31.453125 106.210938 32.3125 108.453125 34.273438 111.859375 L 34.332031 111.964844 L 34.398438 112.066406 C 47.476563 131.589844 69.195313 143.246094 92.488281 143.246094 C 115.78125 143.246094 137.496094 131.589844 150.574219 112.066406 L 150.644531 111.96875 L 150.703125 111.859375 C 152.664063 108.453125 153.519531 106.214844 153.519531 99.074219 L 153.519531 59.867188 "/>
<path style=" stroke:none;fill-rule:evenodd;fill:rgb(0%,10.198975%,29.399109%);fill-opacity:1;" d="M 154.359375 88.300781 L 154.359375 99.074219 C 154.359375 106.417969 153.46875 108.738281 151.429688 112.28125 L 151.355469 112.410156 L 151.273438 112.535156 C 138.039063 132.289063 116.0625 144.085938 92.488281 144.085938 C 68.914063 144.085938 46.9375 132.289063 33.703125 112.535156 L 33.617188 112.410156 L 33.542969 112.28125 C 31.507813 108.734375 30.613281 106.414063 30.613281 99.074219 L 30.613281 4.035156 L 154.359375 4.035156 Z M 156.320313 60.46875 L 156.320313 2.074219 L 28.652344 2.074219 L 28.652344 99.074219 C 28.652344 106.855469 29.675781 109.484375 31.84375 113.257813 L 31.953125 113.445313 L 32.074219 113.625 C 45.671875 133.925781 68.257813 146.046875 92.488281 146.046875 C 116.71875 146.046875 139.304688 133.925781 152.902344 113.625 L 153.023438 113.445313 L 153.132813 113.257813 C 155.300781 109.488281 156.320313 106.855469 156.320313 99.074219 L 156.320313 60.46875 "/>
<path style=" stroke:none;fill-rule:nonzero;fill:rgb(88.999939%,10.598755%,30.198669%);fill-opacity:1;" d="M 81.367188 33.847656 C 79.363281 33.847656 77.742188 32.09375 77.742188 29.929688 C 77.742188 27.765625 79.363281 26.011719 81.367188 26.011719 C 83.367188 26.011719 84.992188 27.765625 84.992188 29.929688 C 84.992188 32.09375 83.367188 33.847656 81.367188 33.847656 Z M 84.910156 11.75 L 84.929688 23.863281 C 83.617188 22.582031 81.871094 21.804688 79.964844 21.804688 C 75.886719 21.804688 72.578125 25.378906 72.578125 29.785156 C 72.578125 34.191406 75.886719 37.761719 79.964844 37.761719 C 81.894531 37.761719 83.636719 36.953125 84.953125 35.644531 L 84.953125 37.613281 L 89.859375 37.613281 L 89.851563 11.75 Z M 105.367188 33.222656 L 100.804688 33.222656 L 100.804688 16.921875 L 103.988281 16.921875 C 105.382813 16.921875 106.515625 18.113281 106.515625 19.585938 C 106.515625 21.054688 105.382813 22.246094 103.988281 22.246094 L 102.332031 22.246094 L 102.332031 26.769531 L 105.367188 26.769531 C 107.058594 26.769531 108.339844 28.207031 108.339844 29.988281 C 108.277344 31.832031 107.207031 33.101563 105.367188 33.222656 Z M 109.355469 23.902344 C 110.660156 22.621094 111.457031 20.90625 111.457031 19.019531 C 111.457031 17.308594 110.832031 15.738281 109.738281 14.503906 C 108.605469 13.1875 106.59375 12.601563 103.871094 12.601563 L 95.726563 12.601563 L 95.726563 37.609375 L 106.246094 37.609375 C 110.277344 37.539063 113.523438 34.3125 113.523438 30.378906 C 113.523438 27.515625 112.566406 25.476563 109.355469 23.902344 Z M 133.628906 37.628906 L 138.390625 37.628906 L 138.390625 11.941406 L 133.628906 11.941406 Z M 125.621094 31.273438 C 125.621094 32.777344 124.367188 33.996094 122.828125 33.996094 C 121.28125 33.996094 120.03125 32.777344 120.03125 31.273438 L 120.03125 22.253906 L 115.179688 22.253906 L 115.179688 32.234375 C 115.179688 35.613281 118.59375 38.351563 122.808594 38.351563 C 127.023438 38.351563 130.441406 35.613281 130.441406 32.234375 L 130.441406 22.253906 L 125.621094 22.253906 Z M 54.847656 19.949219 C 54.847656 15.863281 51.636719 12.554688 47.667969 12.554688 C 47.546875 12.554688 46.992188 12.558594 46.875 12.5625 L 38.523438 12.5625 L 38.523438 37.589844 L 43.59375 37.589844 L 43.59375 16.878906 L 46.617188 16.851563 C 48.488281 16.851563 49.910156 18.320313 49.910156 20.128906 C 49.910156 21.9375 48.390625 23.402344 46.519531 23.402344 L 45.34375 23.433594 L 45.34375 29.390625 L 50.40625 37.589844 L 56.382813 37.589844 L 49.378906 27.132813 C 52.519531 26.339844 54.847656 23.425781 54.847656 19.949219 Z M 60.410156 27.960938 C 60.410156 26.273438 61.746094 24.902344 63.398438 24.902344 C 65.046875 24.902344 66.382813 26.273438 66.382813 27.960938 Z M 63.351563 21.40625 C 58.890625 21.40625 55.273438 25.148438 55.273438 29.769531 C 55.273438 34.386719 58.890625 38.136719 63.355469 38.136719 C 66.761719 38.136719 69.417969 36.5625 70.789063 34.09375 L 66.820313 32.21875 C 66.3125 33.335938 65.132813 34.121094 63.753906 34.121094 C 61.917969 34.121094 60.425781 32.726563 60.425781 31.003906 C 60.425781 30.894531 60.382813 30.9375 60.398438 30.828125 L 71.199219 30.835938 C 71.230469 30.492188 71.246094 30.144531 71.246094 29.785156 C 71.320313 24.371094 67.816406 21.40625 63.351563 21.40625 Z M 141.683594 37.628906 L 146.445313 37.628906 L 146.445313 11.941406 L 141.683594 11.941406 Z M 141.683594 11.941406 L 141.683594 37.628906 L 141.683594 11.941406 "/>
<path style=" stroke:none;fill-rule:evenodd;fill:rgb(100%,83.099365%,0%);fill-opacity:1;" d="M 126.460938 70.273438 C 126.460938 89.136719 111.171875 104.433594 92.304688 104.433594 C 73.441406 104.433594 58.152344 89.136719 58.152344 70.273438 C 58.152344 51.410156 73.441406 36.117188 92.304688 36.117188 C 111.171875 36.117188 126.460938 51.410156 126.460938 70.273438 "/>
<path style=" stroke:none;fill-rule:nonzero;fill:rgb(100%,100%,100%);fill-opacity:1;" d="M 122.007813 81.351563 C 121.664063 80.691406 120.472656 79.230469 120.628906 78.300781 C 121.507813 78.410156 122.839844 78.421875 123.328125 78.449219 C 123.175781 78.726563 122.175781 81.015625 122.007813 81.351563 Z M 182.910156 91.5 C 182.84375 91.238281 182.742188 90.949219 182.65625 90.726563 L 182.578125 90.519531 C 182.515625 90.347656 182.453125 90.1875 182.390625 90.003906 C 182.367188 89.921875 182.339844 89.84375 182.324219 89.777344 C 182.316406 89.726563 182.3125 89.675781 182.316406 89.625 C 182.398438 88.65625 182.160156 88.152344 181.777344 87.492188 C 181.484375 86.976563 181.070313 86.777344 180.792969 86.765625 C 180.722656 86.96875 180.53125 87.09375 180.320313 87.09375 C 180.289063 87.09375 180.261719 87.089844 180.234375 87.085938 C 179.960938 87.046875 179.769531 86.773438 179.800781 86.5 C 179.808594 86.433594 179.816406 86.363281 179.820313 86.289063 C 179.828125 86.03125 179.773438 85.796875 179.644531 85.558594 C 179.316406 84.949219 176.96875 83.015625 176.078125 83.015625 C 175.355469 83.015625 174.597656 83.410156 174.046875 84.078125 C 173.949219 84.195313 173.804688 84.265625 173.652344 84.265625 C 173.632813 84.265625 173.617188 84.265625 173.601563 84.261719 C 173.433594 84.246094 173.28125 84.144531 173.199219 83.996094 C 173.117188 83.851563 173.050781 83.695313 172.992188 83.53125 C 172.828125 83.105469 172.738281 82.671875 172.644531 82.257813 L 172.574219 81.933594 C 172.328125 80.847656 171.960938 79.75 170.511719 79.332031 C 170.394531 79.296875 170.238281 79.269531 170.054688 79.253906 C 169.894531 79.238281 169.726563 79.230469 169.550781 79.226563 L 169.417969 79.222656 C 169.125 79.214844 168.824219 79.210938 168.523438 79.164063 C 167.929688 79.078125 167.53125 78.886719 167.53125 78.21875 C 167.53125 78.160156 167.542969 78.101563 167.5625 78.046875 L 167.71875 77.589844 C 167.839844 77.253906 168.007813 76.738281 168.140625 76.125 C 168.390625 74.984375 168.410156 73.9375 168.199219 73.019531 C 168.160156 72.851563 168.210938 72.675781 168.324219 72.550781 C 168.421875 72.445313 168.558594 72.386719 168.703125 72.386719 C 168.726563 72.386719 168.753906 72.390625 168.777344 72.394531 C 169.375 72.484375 169.859375 72.492188 169.992188 72.492188 C 173.089844 72.492188 178.003906 70.46875 178.003906 65.042969 C 178.003906 61.925781 175.476563 58.964844 173.359375 57.027344 C 173.222656 56.898438 173.164063 56.707031 173.210938 56.523438 C 173.253906 56.339844 173.394531 56.195313 173.578125 56.148438 C 176.589844 55.359375 178.25 53.355469 178.25 50.503906 L 178.25 50.316406 C 178.25 49.867188 178.253906 49.363281 178.164063 48.824219 C 178.039063 48.066406 177.757813 47.363281 177.308594 46.679688 C 177.261719 46.609375 177.1875 46.53125 177.019531 46.53125 C 176.957031 46.53125 176.910156 46.542969 176.894531 46.546875 C 176.773438 46.578125 176.644531 46.65625 176.558594 46.714844 C 176.28125 46.902344 175.875 47.246094 175.550781 47.523438 C 175.183594 47.839844 174.742188 48.074219 174.121094 48.28125 C 173.742188 48.40625 173.351563 48.511719 172.933594 48.621094 C 172.714844 48.675781 172.492188 48.738281 172.257813 48.800781 C 170.824219 49.203125 169.253906 49.789063 167.511719 51.324219 C 166.714844 52.027344 166.164063 53.191406 166.109375 54.300781 C 166.0625 55.230469 166.40625 56.191406 167.171875 57.238281 C 167.828125 58.148438 168.703125 59.007813 169.617188 59.878906 L 169.945313 60.191406 C 170.277344 60.507813 170.605469 60.824219 170.921875 61.136719 C 171.398438 61.613281 171.757813 62 172.050781 62.359375 C 172.777344 63.253906 173.117188 63.988281 173.117188 64.667969 C 173.117188 66.125 172.074219 67.105469 170.496094 67.105469 C 168.746094 67.089844 167.40625 66.421875 165.535156 65.1875 C 165.253906 65 164.960938 64.800781 164.660156 64.597656 C 164.039063 64.179688 163.398438 63.746094 162.6875 63.300781 C 161.390625 62.492188 160.195313 61.851563 158.921875 61.285156 C 158.25 60.984375 157.585938 60.75 156.828125 60.546875 C 156.289063 60.402344 155.773438 60.292969 155.277344 60.191406 L 155.035156 60.140625 C 153.894531 59.902344 152.941406 59.664063 151.925781 58.996094 C 151.632813 58.804688 151.335938 58.601563 151.027344 58.390625 C 150.5 58.03125 149.949219 57.65625 149.386719 57.304688 C 148.308594 56.632813 147.441406 56.207031 146.648438 55.96875 C 146.402344 55.894531 146.148438 55.839844 145.824219 55.792969 C 145.683594 55.773438 145.542969 55.753906 145.402344 55.738281 L 145.074219 55.691406 C 144.566406 55.621094 144.132813 55.519531 143.671875 55.257813 C 143.378906 55.085938 143.105469 54.90625 142.796875 54.679688 C 142.578125 54.515625 142.367188 54.351563 142.15625 54.183594 L 142.007813 54.066406 C 141.46875 53.644531 140.859375 53.1875 139.933594 52.6875 C 138.535156 51.929688 137.136719 51.554688 135.929688 51.261719 L 135.695313 51.203125 C 135.230469 51.09375 134.828125 50.996094 134.484375 50.882813 C 134.28125 50.816406 134.128906 50.753906 134.019531 50.695313 C 133.941406 50.65625 133.878906 50.609375 133.851563 50.589844 C 133.816406 50.566406 133.785156 50.535156 133.757813 50.5 C 130.765625 46.738281 127.179688 46.441406 126.148438 46.441406 C 125.914063 46.441406 125.691406 46.457031 125.484375 46.480469 C 124.289063 46.609375 122.855469 47.667969 121.609375 48.683594 C 121.160156 49.050781 120.703125 49.441406 120.234375 49.839844 C 119.292969 50.644531 118.316406 51.480469 117.359375 52.160156 C 112.40625 55.683594 110.609375 57.09375 108.265625 59.65625 C 105.09375 63.125 104.097656 67.523438 103.214844 71.40625 L 103.152344 71.6875 C 102.726563 73.570313 102.285156 75.519531 101.636719 77.304688 C 100.878906 79.398438 99.945313 80.980469 98.703125 82.277344 C 98.101563 82.90625 97.597656 83.390625 97.160156 83.75 C 96.867188 83.992188 96.648438 84.144531 96.460938 84.277344 L 96.332031 84.367188 C 95.808594 84.738281 95.605469 85.214844 95.753906 85.699219 C 95.949219 86.320313 96.742188 86.960938 98.085938 86.984375 C 98.238281 86.988281 98.386719 87.0625 98.480469 87.183594 C 98.578125 87.304688 98.613281 87.464844 98.578125 87.617188 C 98.523438 87.847656 98.566406 88.046875 98.710938 88.234375 C 99.078125 88.707031 99.953125 88.976563 100.445313 88.988281 L 100.65625 88.992188 C 103.027344 88.992188 105.0625 88.121094 106.714844 86.40625 C 106.816406 86.300781 106.949219 86.246094 107.085938 86.246094 C 107.210938 86.246094 107.335938 86.292969 107.433594 86.382813 C 108.089844 86.988281 108.9375 87.292969 110.019531 87.3125 L 110.132813 87.316406 C 110.636719 87.316406 111.140625 87.257813 111.601563 87.207031 C 111.832031 87.183594 112.054688 87.160156 112.265625 87.144531 C 112.386719 87.136719 112.496094 87.128906 112.605469 87.128906 C 112.683594 87.128906 112.753906 87.132813 112.820313 87.136719 C 113.101563 87.160156 113.460938 87.25 113.953125 87.414063 C 114.296875 87.535156 114.660156 87.671875 115.03125 87.816406 L 115.363281 87.945313 C 116.085938 88.21875 117.179688 88.636719 118.011719 88.636719 C 118.058594 88.636719 118.101563 88.636719 118.148438 88.632813 C 120.015625 88.515625 120.714844 87.128906 120.964844 86.308594 C 121.027344 86.09375 121.226563 85.945313 121.453125 85.945313 L 121.472656 85.945313 C 121.703125 85.953125 121.902344 86.113281 121.953125 86.339844 C 122.003906 86.539063 122.054688 86.730469 122.109375 86.914063 C 122.402344 87.898438 122.789063 88.558594 123.363281 89.054688 C 123.539063 89.210938 123.761719 89.304688 124.089844 89.355469 C 124.363281 89.402344 124.761719 89.425781 125.339844 89.429688 C 125.453125 89.429688 125.5625 89.46875 125.648438 89.535156 C 125.714844 89.585938 125.800781 89.664063 125.929688 89.796875 C 126.050781 89.917969 126.175781 90.042969 126.292969 90.144531 C 126.398438 90.234375 126.5625 90.359375 126.75 90.425781 C 129.371094 91.316406 132.777344 92.28125 134.484375 92.304688 L 134.550781 92.304688 C 136.882813 92.304688 137.671875 90.070313 137.90625 89.109375 C 137.953125 88.914063 138.109375 88.761719 138.308594 88.726563 C 140.476563 88.296875 141.667969 85.03125 141.664063 84.46875 C 141.652344 83.421875 141.246094 83.003906 140.207031 82.925781 L 136.421875 82.925781 C 136.335938 82.925781 136.253906 82.9375 136.167969 82.960938 C 136.121094 82.976563 136.074219 82.980469 136.027344 82.980469 C 135.851563 82.980469 135.6875 82.894531 135.59375 82.746094 C 135.453125 82.53125 135.304688 82.425781 135.050781 82.367188 C 134.863281 82.324219 134.714844 82.175781 134.671875 81.984375 C 134.625 81.792969 134.6875 81.59375 134.839844 81.472656 C 134.917969 81.40625 134.992188 81.339844 135.0625 81.273438 C 135.160156 81.183594 135.285156 81.132813 135.414063 81.132813 L 135.4375 81.132813 C 135.953125 81.15625 136.957031 81.195313 137.914063 81.195313 C 138.335938 81.195313 138.75 81.1875 139.105469 81.167969 C 139.867188 81.125 140.503906 81.050781 141.175781 80.972656 C 142.230469 80.851563 143.316406 80.726563 144.953125 80.722656 L 148.503906 80.917969 C 149.257813 80.917969 149.949219 80.820313 150.554688 80.625 C 150.605469 80.609375 150.660156 80.601563 150.710938 80.601563 C 150.808594 80.601563 150.90625 80.628906 150.988281 80.683594 C 151.117188 80.765625 151.203125 80.898438 151.222656 81.050781 C 151.449219 82.847656 152.039063 84.429688 152.925781 85.628906 C 153.15625 85.941406 153.445313 86.210938 153.835938 86.476563 C 154.035156 86.617188 154.25 86.742188 154.464844 86.871094 C 154.589844 86.945313 154.710938 87.019531 154.835938 87.101563 C 155.769531 87.683594 156.933594 88.414063 158.386719 88.410156 C 158.777344 88.410156 159.179688 88.359375 159.582031 88.257813 C 160.019531 88.144531 160.453125 88.089844 160.910156 88.089844 C 161.140625 88.089844 161.363281 88.105469 161.578125 88.128906 C 162.15625 88.191406 162.667969 88.320313 163.082031 88.425781 L 163.191406 88.453125 C 163.867188 88.621094 164.503906 88.886719 165.140625 89.265625 C 165.664063 89.582031 166.109375 89.917969 166.535156 90.242188 L 166.648438 90.328125 C 167.5 90.972656 168.378906 91.640625 169.609375 91.640625 C 169.652344 91.640625 169.703125 91.636719 169.753906 91.636719 C 169.835938 91.632813 169.929688 91.605469 169.972656 91.59375 C 170.039063 91.574219 170.121094 91.550781 170.210938 91.519531 C 170.378906 91.457031 170.574219 91.378906 170.773438 91.300781 C 170.964844 91.222656 171.183594 91.136719 171.433594 91.089844 C 171.464844 91.085938 171.496094 91.082031 171.53125 91.082031 C 171.699219 91.082031 171.859375 91.164063 171.957031 91.304688 C 172.019531 91.398438 172.085938 91.503906 172.152344 91.613281 C 172.277344 91.8125 172.402344 92.019531 172.566406 92.226563 C 173.035156 92.835938 173.898438 93.65625 175.914063 93.703125 C 176.097656 93.710938 176.273438 93.710938 176.441406 93.710938 C 177.492188 93.710938 178.136719 93.628906 178.429688 93.582031 C 178.457031 93.578125 178.484375 93.574219 178.511719 93.574219 C 178.617188 93.574219 178.71875 93.605469 178.804688 93.667969 C 179.019531 93.816406 179.246094 93.886719 179.5 93.886719 C 180.042969 93.886719 180.847656 93.726563 181.5 93.484375 C 181.886719 93.339844 182.207031 93.175781 182.445313 93 C 182.753906 92.773438 182.933594 92.519531 182.972656 92.246094 C 183.007813 92.042969 182.984375 91.800781 182.910156 91.5 Z M 64.421875 79.257813 C 64.074219 79.691406 63.546875 79.824219 63.070313 80.667969 C 62.105469 80.292969 61.9375 79.027344 61.761719 78.480469 C 62.53125 78.335938 64.347656 77.992188 65.300781 77.847656 C 64.90625 78.34375 64.625 78.679688 64.421875 79.257813 Z M 87.265625 83.246094 C 86.296875 82.699219 85.71875 81.855469 85.328125 81.179688 C 85.15625 80.886719 84.996094 80.589844 84.84375 80.296875 L 84.664063 79.960938 C 84.472656 79.601563 84.234375 79.1875 83.960938 78.828125 C 83.855469 78.695313 83.722656 78.550781 83.59375 78.410156 L 83.203125 78.003906 C 83.078125 77.875 82.964844 77.75 82.871094 77.628906 C 82.777344 77.507813 82.710938 77.402344 82.675781 77.320313 C 80.96875 72.953125 80.570313 70.476563 79.957031 66.128906 C 79.640625 63.890625 78.269531 62.082031 76.050781 59.363281 C 75.773438 59.027344 75.464844 58.625 75.136719 58.199219 C 74.910156 57.90625 74.675781 57.605469 74.4375 57.300781 C 73.707031 56.382813 73.113281 55.703125 72.644531 55.242188 C 71.847656 54.574219 71.144531 53.976563 70.507813 53.4375 C 69.605469 52.667969 68.839844 52.015625 68.132813 51.4375 C 66.800781 50.34375 65.777344 49.570313 64.59375 48.773438 C 62.945313 47.660156 61.179688 47.09375 59.351563 47.09375 C 57.484375 47.09375 56.109375 47.695313 55.644531 48.015625 C 54.070313 49.085938 52.882813 49.746094 51.550781 50.300781 C 50.582031 50.703125 49.578125 51.03125 48.304688 51.449219 C 47.898438 51.582031 47.464844 51.726563 46.988281 51.882813 C 45.542969 52.367188 44.519531 53.203125 43.792969 53.882813 C 43.613281 54.046875 43.449219 54.210938 43.289063 54.363281 C 43.113281 54.539063 42.941406 54.703125 42.78125 54.847656 C 42.453125 55.148438 42.222656 55.308594 42.015625 55.382813 C 41.796875 55.460938 41.445313 55.515625 40.933594 55.550781 C 40.671875 55.570313 40.394531 55.582031 40.125 55.59375 C 39.929688 55.601563 39.734375 55.609375 39.554688 55.621094 C 37.898438 55.71875 36.566406 56.652344 35.707031 57.34375 C 35.261719 57.707031 34.847656 58.085938 34.445313 58.449219 L 34.253906 58.625 C 33.75 59.085938 33.390625 59.394531 33.046875 59.613281 C 31.871094 60.375 30.757813 60.484375 29.535156 60.605469 C 28.90625 60.667969 28.261719 60.730469 27.566406 60.875 C 26.734375 61.046875 25.953125 61.308594 25.171875 61.675781 C 24.296875 62.089844 23.40625 62.617188 22.296875 63.390625 C 21.816406 63.722656 21.34375 64.066406 20.878906 64.40625 C 20.464844 64.707031 20.058594 65.003906 19.648438 65.289063 C 17.816406 66.574219 16.242188 67.429688 14.539063 67.429688 C 12.855469 67.429688 11.660156 66.445313 11.496094 64.917969 C 11.351563 63.574219 12.039063 62.214844 13.429688 61.089844 L 14.199219 60.476563 C 14.769531 60.015625 15.304688 59.589844 15.789063 59.171875 C 16.597656 58.480469 17.148438 57.921875 17.570313 57.363281 C 18.617188 55.988281 18.882813 54.574219 18.433594 52.773438 C 18.03125 51.15625 16.785156 50.054688 14.628906 49.410156 C 13.863281 49.175781 13.078125 49.035156 12.347656 48.917969 L 12.09375 48.878906 C 11.867188 48.84375 11.664063 48.808594 11.488281 48.777344 C 11.25 48.730469 11.085938 48.691406 10.992188 48.652344 C 9.824219 48.128906 7.28125 46.433594 6.773438 46.089844 L 6.566406 45.949219 L 6.425781 46.152344 C 5.960938 46.820313 5.59375 47.347656 5.316406 49.664063 C 5.011719 52.21875 7.117188 55.339844 10.742188 55.910156 C 10.945313 55.941406 11.109375 56.09375 11.160156 56.289063 C 11.214844 56.488281 11.144531 56.699219 10.980469 56.824219 C 7.144531 59.839844 6.328125 61.136719 6.125 64.527344 C 6 66.628906 6.734375 68.6875 8.144531 70.183594 C 9.683594 71.8125 11.910156 72.675781 14.59375 72.675781 C 15.308594 72.675781 16.0625 72.617188 16.835938 72.496094 C 16.863281 72.488281 16.890625 72.488281 16.914063 72.488281 C 17.03125 72.488281 17.144531 72.527344 17.234375 72.597656 C 17.347656 72.6875 17.417969 72.820313 17.429688 72.964844 C 17.605469 75.320313 18.035156 77.238281 18.570313 78.09375 C 18.699219 78.304688 18.664063 78.578125 18.480469 78.746094 C 18.316406 78.898438 18.054688 79.046875 17.726563 79.175781 C 16.90625 79.496094 15.667969 79.691406 14.429688 79.691406 C 13.65625 79.691406 13.082031 80.222656 12.621094 81.359375 C 12.472656 81.730469 12.347656 82.125 12.226563 82.507813 L 12.195313 82.613281 C 12.132813 82.808594 12.074219 82.988281 12.015625 83.144531 C 11.964844 83.292969 11.90625 83.429688 11.847656 83.539063 C 11.695313 83.816406 11.464844 84.085938 11.148438 84.367188 C 11.050781 84.449219 10.933594 84.492188 10.808594 84.492188 C 10.78125 84.492188 10.746094 84.492188 10.722656 84.488281 C 10.566406 84.460938 10.433594 84.367188 10.355469 84.230469 C 9.980469 83.546875 9.382813 83.113281 8.585938 82.9375 L 8.570313 82.9375 L 8.488281 82.933594 C 7.308594 82.933594 5.273438 83.929688 4.523438 85.800781 C 4.453125 85.972656 4.292969 86.097656 4.105469 86.117188 L 4.011719 86.128906 C 3.074219 86.226563 2.480469 86.664063 2.148438 87.5 C 2.007813 87.855469 1.925781 88.25 1.855469 88.597656 L 1.808594 88.851563 C 1.753906 89.140625 1.699219 89.429688 1.625 89.714844 C 1.5625 89.941406 1.484375 90.140625 1.363281 90.363281 C 1.304688 90.476563 1.242188 90.574219 1.183594 90.671875 C 1.140625 90.742188 1.097656 90.8125 1.0625 90.878906 C 0.851563 91.261719 0.746094 91.65625 0.914063 92.324219 C 0.988281 92.628906 1.230469 92.894531 1.632813 93.109375 C 1.925781 93.273438 2.3125 93.410156 2.773438 93.523438 C 3.589844 93.722656 4.398438 93.785156 4.554688 93.785156 C 4.667969 93.785156 4.78125 93.753906 4.890625 93.691406 C 4.96875 93.648438 5.042969 93.589844 5.128906 93.523438 C 5.222656 93.453125 5.347656 93.410156 5.46875 93.410156 C 5.496094 93.410156 5.523438 93.410156 5.546875 93.414063 L 5.929688 93.484375 C 6.242188 93.546875 6.632813 93.625 7.023438 93.703125 L 7.085938 93.714844 C 7.457031 93.792969 7.824219 93.863281 8.121094 93.917969 C 8.28125 93.949219 8.425781 93.976563 8.53125 93.992188 C 8.652344 94.007813 8.746094 94.015625 8.800781 94.015625 L 8.804688 94.015625 C 10.425781 93.941406 11.109375 93.308594 11.5625 92.703125 C 11.691406 92.535156 11.804688 92.355469 11.917969 92.167969 L 12.101563 91.855469 L 12.238281 91.621094 C 12.371094 91.394531 12.503906 91.183594 12.648438 90.988281 C 12.746094 90.851563 12.902344 90.777344 13.0625 90.777344 C 13.105469 90.777344 13.152344 90.78125 13.195313 90.792969 C 13.382813 90.84375 13.566406 90.878906 13.726563 90.90625 C 14.101563 90.96875 14.445313 91.003906 14.59375 91.011719 C 14.699219 91.019531 14.800781 91.023438 14.90625 91.023438 C 16.4375 91.023438 17.582031 90.167969 18.527344 89.367188 L 18.839844 89.105469 C 18.984375 88.980469 19.128906 88.855469 19.269531 88.738281 C 19.457031 88.582031 19.707031 88.378906 19.96875 88.207031 C 20.425781 87.898438 20.816406 87.757813 21.195313 87.757813 L 21.289063 87.761719 C 21.65625 87.78125 23.042969 87.882813 25.394531 88.257813 C 25.492188 88.269531 25.59375 88.277344 25.699219 88.277344 C 26.226563 88.277344 26.902344 88.097656 27.707031 87.738281 C 28.285156 87.480469 28.949219 87.117188 29.621094 86.699219 C 29.765625 86.609375 29.933594 86.527344 30.144531 86.433594 L 30.203125 86.40625 C 30.394531 86.320313 30.601563 86.226563 30.808594 86.121094 C 31.195313 85.921875 31.761719 85.59375 32.21875 85.023438 C 32.484375 84.6875 32.847656 83.980469 33.199219 83.265625 L 33.582031 82.480469 C 33.792969 82.046875 34.015625 81.585938 34.246094 81.128906 C 34.332031 80.953125 34.511719 80.84375 34.707031 80.84375 L 34.71875 80.84375 L 34.851563 80.847656 C 35.582031 80.847656 36.453125 80.734375 37.214844 80.625 C 37.546875 80.578125 37.878906 80.523438 38.1875 80.472656 C 38.886719 80.367188 39.492188 80.269531 39.9375 80.253906 C 40.050781 80.253906 40.34375 80.273438 40.757813 80.300781 L 41.691406 80.363281 C 42.863281 80.433594 43.816406 80.46875 44.613281 80.46875 C 45.085938 80.46875 45.503906 80.457031 45.851563 80.429688 C 46.476563 80.386719 47.054688 80.289063 47.515625 80.152344 C 47.644531 80.109375 47.789063 80.0625 47.929688 80 C 47.996094 79.972656 48.066406 79.957031 48.136719 79.957031 C 48.265625 79.957031 48.398438 80.007813 48.492188 80.105469 C 48.75 80.355469 49.023438 80.605469 49.300781 80.847656 C 49.457031 80.984375 49.511719 81.203125 49.449219 81.398438 C 49.382813 81.59375 49.207031 81.734375 49 81.75 C 48.894531 81.757813 48.792969 81.769531 48.695313 81.78125 C 48.367188 81.824219 47.773438 81.957031 47.472656 82.34375 C 47.371094 82.472656 47.222656 82.542969 47.066406 82.542969 C 46.996094 82.542969 46.925781 82.53125 46.859375 82.5 C 46.789063 82.46875 46.71875 82.445313 46.644531 82.425781 C 46.484375 82.378906 46.332031 82.371094 46.203125 82.371094 L 45.964844 82.371094 L 45.699219 82.375 L 45.554688 82.375 C 45.089844 82.375 43.996094 82.375 43.050781 82.527344 C 42.46875 82.625 42.007813 82.765625 41.679688 82.949219 C 41.371094 83.125 41.011719 83.445313 41.039063 83.964844 C 41.097656 84.933594 42.460938 87.554688 43.390625 88.488281 C 43.570313 88.664063 44.179688 88.859375 44.859375 88.859375 C 44.929688 88.859375 45.003906 88.855469 45.078125 88.851563 C 45.089844 88.851563 45.101563 88.851563 45.113281 88.851563 C 45.304688 88.851563 45.480469 88.957031 45.570313 89.132813 C 46.523438 91.003906 48.167969 92.265625 49.667969 92.261719 L 49.765625 92.261719 C 51.199219 92.210938 55.066406 90.8125 57.78125 89.539063 C 57.816406 89.523438 57.851563 89.511719 57.886719 89.503906 C 57.972656 89.484375 58.074219 89.464844 58.179688 89.453125 C 58.34375 89.429688 58.523438 89.410156 58.714844 89.386719 L 58.988281 89.355469 C 59.585938 89.285156 60.265625 89.179688 60.761719 88.945313 C 61.21875 88.726563 61.882813 87.871094 62.457031 86.769531 C 62.542969 86.59375 62.71875 86.488281 62.910156 86.488281 C 62.925781 86.488281 62.941406 86.492188 62.960938 86.492188 C 63.167969 86.511719 63.34375 86.65625 63.40625 86.855469 C 63.472656 87.078125 63.550781 87.273438 63.644531 87.453125 C 64.105469 88.324219 64.933594 88.765625 66.097656 88.765625 C 66.160156 88.765625 66.222656 88.761719 66.289063 88.761719 C 67.089844 88.730469 67.972656 88.460938 68.738281 88.210938 L 69.171875 88.066406 C 69.828125 87.847656 70.449219 87.640625 71.027344 87.539063 C 71.234375 87.5 71.464844 87.484375 71.738281 87.484375 C 71.863281 87.484375 71.992188 87.488281 72.128906 87.492188 C 72.371094 87.503906 72.621094 87.527344 72.867188 87.542969 C 73.03125 87.558594 73.199219 87.570313 73.367188 87.582031 C 73.601563 87.597656 73.851563 87.613281 74.105469 87.613281 C 74.820313 87.613281 75.371094 87.507813 75.867188 87.269531 C 76.589844 86.972656 77.152344 86.566406 77.523438 86.296875 L 77.660156 86.199219 C 77.75 86.132813 77.855469 86.101563 77.960938 86.101563 C 78.082031 86.101563 78.207031 86.148438 78.304688 86.230469 C 79.316406 87.132813 81.5 88.648438 84.714844 88.648438 C 84.824219 88.648438 84.933594 88.648438 85.042969 88.640625 C 85.808594 88.617188 86.410156 88.363281 86.734375 87.929688 C 86.953125 87.636719 87.019531 87.289063 86.929688 86.945313 C 86.890625 86.804688 86.917969 86.65625 86.992188 86.535156 C 87.070313 86.414063 87.195313 86.332031 87.335938 86.304688 C 87.863281 86.210938 88.292969 86.023438 88.605469 85.746094 C 88.890625 85.492188 89.074219 85.128906 89.078125 84.808594 C 89.082031 84.597656 89.003906 84.417969 88.839844 84.265625 C 88.488281 83.9375 88.285156 83.816406 87.265625 83.246094 "/>
<path style=" stroke:none;fill-rule:nonzero;fill:rgb(100%,100%,100%);fill-opacity:1;" d="M 75.101563 49.792969 C 75.101563 40.34375 82.761719 32.683594 92.210938 32.683594 C 101.660156 32.683594 109.320313 40.34375 109.320313 49.792969 C 109.320313 59.242188 101.660156 66.90625 92.210938 66.90625 C 82.761719 66.90625 75.101563 59.242188 75.101563 49.792969 "/>
<path style=" stroke:none;fill-rule:nonzero;fill:rgb(81.999207%,82.699585%,83.099365%);fill-opacity:1;" d="M 79.351563 59.023438 C 84.339844 62.628906 91.375 63.199219 96.871094 60.246094 C 102.839844 57.15625 106.457031 50.789063 105.90625 43.929688 C 105.804688 42.933594 105.644531 41.964844 105.382813 41.019531 C 107.070313 43.554688 108.039063 46.5625 108.039063 49.792969 C 108.039063 58.535156 100.953125 65.621094 92.210938 65.621094 C 86.914063 65.621094 82.226563 63.019531 79.351563 59.023438 "/>
<path style=" stroke:none;fill-rule:evenodd;fill:rgb(0%,10.198975%,29.399109%);fill-opacity:1;" d="M 87.546875 53.75 C 83.847656 52.855469 81.320313 51.960938 81.320313 51.960938 C 80.917969 48.140625 81.257813 44.8125 81.257813 44.8125 C 82.859375 43.980469 87.203125 42.039063 87.203125 42.039063 C 89.269531 44.382813 91.242188 47.523438 91.242188 47.523438 C 90.285156 49.371094 87.546875 53.75 87.546875 53.75 Z M 81.445313 38.195313 C 81.074219 38.800781 79.984375 40.628906 79.007813 42.808594 C 78.082031 43.964844 77.277344 45.140625 76.929688 45.65625 C 77.714844 42.753906 79.304688 40.183594 81.445313 38.195313 Z M 98.054688 47.398438 C 98.054688 47.398438 99.4375 44.503906 101.105469 42.160156 C 101.105469 42.160156 104.308594 43.671875 105.816406 44.90625 C 105.816406 44.90625 106.371094 46.628906 106.003906 51.683594 C 106.003906 51.683594 104.089844 52.792969 101.320313 53.472656 C 101.320313 53.472656 99.4375 50.296875 98.054688 47.398438 Z M 90.871094 59.265625 L 97.714844 59.078125 L 99.039063 62.808594 C 96.453125 64.347656 93.339844 65.152344 93.339844 65.152344 C 90.070313 64.441406 88.191406 63.023438 88.191406 63.023438 Z M 92.210938 33.96875 C 94.300781 33.96875 96.292969 34.371094 98.117188 35.105469 C 98.054688 35.398438 97.832031 36.234375 97.191406 37.292969 C 93.894531 36.863281 90.226563 37.199219 90.226563 37.199219 L 87.179688 34.785156 C 88.757813 34.253906 90.453125 33.96875 92.210938 33.96875 Z M 82.070313 61.945313 C 79.449219 59.757813 77.546875 56.730469 76.769531 53.28125 C 77.617188 54.160156 79.257813 55.84375 79.257813 55.84375 C 80.242188 57.878906 82.707031 61.421875 82.707031 61.421875 C 82.53125 61.617188 82.25 61.824219 82.070313 61.945313 "/>
<path style=" stroke:none;fill-rule:nonzero;fill:rgb(88.999939%,10.598755%,30.198669%);fill-opacity:1;" d="M 78.117188 74.640625 C 78.109375 74.660156 78.03125 74.894531 78.03125 74.894531 C 78.023438 74.910156 77.949219 75.152344 77.949219 75.152344 C 77.863281 75.386719 77.726563 75.519531 77.523438 75.566406 C 77.402344 75.601563 77.289063 75.582031 77.199219 75.515625 C 77.105469 75.449219 77.050781 75.335938 77.050781 75.214844 C 77.050781 75.207031 77.035156 74.945313 77.035156 74.945313 L 76.941406 74.027344 C 76.871094 73.601563 76.742188 73.273438 76.546875 72.996094 C 76.539063 72.988281 76.144531 72.527344 76.144531 72.527344 C 76.128906 72.507813 75.6875 72.011719 75.6875 72.011719 C 75.335938 71.660156 75.023438 71.492188 74.695313 71.480469 C 74.4375 71.5625 74.207031 71.730469 73.960938 72.003906 L 73.640625 72.390625 L 73.363281 72.769531 C 73.261719 72.941406 73.03125 72.84375 73.03125 72.84375 C 73.03125 72.84375 73.007813 72.832031 72.992188 72.820313 C 72.984375 72.800781 72.972656 72.777344 72.972656 72.777344 C 72.902344 72.597656 72.875 72.425781 72.875 72.265625 C 72.875 71.980469 72.960938 71.722656 73.050781 71.511719 L 73.292969 71.015625 L 73.570313 70.429688 L 73.605469 70.375 C 73.691406 70.292969 73.769531 70.152344 73.863281 69.910156 L 73.9375 69.707031 L 74.097656 69.289063 C 74.347656 68.757813 74.714844 68.617188 75.253906 68.84375 C 75.671875 69.070313 75.925781 69.425781 76.121094 69.742188 C 76.121094 69.742188 76.253906 69.960938 76.253906 69.960938 L 76.425781 70.242188 L 76.777344 70.691406 C 77.738281 71.769531 78.207031 72.789063 78.207031 73.839844 C 78.207031 74.105469 78.175781 74.371094 78.117188 74.640625 Z M 74.464844 82.769531 C 74.464844 82.769531 74.453125 82.777344 74.457031 82.785156 C 74.449219 82.777344 74.429688 82.785156 74.429688 82.785156 C 73.875 82.960938 73.25 83.03125 72.570313 83 L 72.53125 82.992188 C 72.53125 82.992188 72.40625 82.9375 72.40625 82.9375 C 72.40625 82.933594 72.273438 82.855469 72.273438 82.855469 C 72.210938 82.800781 72.109375 82.6875 72.167969 82.519531 C 72.425781 81.742188 73.191406 80.851563 74.160156 80.652344 C 74.1875 80.648438 74.246094 80.648438 74.246094 80.648438 L 74.378906 80.648438 L 74.597656 80.679688 C 74.703125 80.707031 74.882813 80.792969 74.925781 81.050781 C 74.941406 81.191406 74.953125 81.351563 74.953125 81.515625 C 74.953125 81.972656 74.859375 82.472656 74.464844 82.769531 Z M 63.09375 63.09375 C 63.058594 63.082031 63.019531 63.074219 63.019531 63.074219 C 63.019531 63.074219 63.015625 63.089844 63.011719 63.101563 C 63.003906 63.113281 62.992188 63.125 62.992188 63.125 C 62.90625 63.207031 62.753906 63.269531 62.605469 63.167969 C 62.605469 63.167969 62.585938 63.152344 62.566406 63.140625 C 62.558594 63.117188 62.554688 63.09375 62.554688 63.09375 C 62.324219 61.902344 62.058594 60.644531 61.578125 59.472656 C 61.578125 59.476563 61.300781 59 61.300781 59 L 61.195313 58.851563 L 60.957031 58.507813 C 60.769531 58.207031 60.585938 57.800781 60.835938 57.320313 L 60.863281 57.28125 C 61.082031 57.066406 61.464844 57.046875 61.726563 57.144531 L 61.761719 57.160156 C 62.269531 57.511719 62.597656 58.09375 62.835938 58.519531 C 63.140625 59.21875 63.292969 60.097656 63.292969 61.007813 C 63.292969 61.703125 63.203125 62.410156 63.019531 63.074219 C 63.019531 63.074219 63.058594 63.082031 63.09375 63.09375 Z M 86.511719 84.105469 C 84.71875 83.0625 84.003906 81.09375 82.902344 79.542969 C 82.515625 78.972656 81.828125 78.613281 81.46875 78.046875 C 80.1875 74.558594 79.082031 71.066406 78.753906 67.070313 C 78.484375 66.085938 78.277344 65.070313 77.738281 64.144531 C 76.128906 61.523438 74.042969 59.132813 72.011719 56.71875 C 71.835938 56.539063 71.832031 56.523438 71.445313 56.148438 L 64.375 50.273438 C 63.511719 49.617188 62.523438 49.199219 61.539063 48.75 C 60.046875 48.183594 58.019531 48.304688 56.558594 48.929688 C 55.035156 49.734375 53.664063 50.898438 52.054688 51.4375 C 49.726563 52.480469 47.101563 52.691406 45.101563 54.480469 C 43.9375 55.496094 42.953125 57.074219 41.222656 56.808594 C 39.285156 56.71875 37.554688 57.433594 36.09375 58.625 C 34.78125 59.820313 33.527344 61.222656 31.828125 61.550781 C 30.335938 62.175781 28.515625 61.878906 26.992188 62.445313 C 24.578125 63.042969 22.667969 64.953125 20.609375 66.414063 C 18.550781 67.605469 16.582031 68.890625 14.015625 68.828125 C 12.34375 68.710938 10.734375 67.546875 10.199219 65.9375 C 9.691406 64.085938 10.257813 62.175781 11.71875 60.925781 C 13.238281 59.105469 15.65625 58.03125 16.851563 55.941406 C 17.476563 54.835938 17.386719 53.046875 16.550781 52.003906 C 14.96875 50.363281 12.703125 50.300781 10.644531 49.796875 C 9.332031 49.4375 8.316406 48.421875 7.152344 47.796875 C 6.707031 48.484375 6.558594 49.230469 6.617188 50.0625 C 6.855469 51.945313 8.289063 53.644531 10.078125 54.300781 C 11.121094 54.746094 12.316406 54.421875 13.390625 54.660156 C 13.6875 54.777344 13.988281 55.078125 14.015625 55.40625 C 13.957031 55.703125 13.925781 56 13.660156 56.210938 C 11.988281 57.613281 10.226563 58.953125 8.824219 60.683594 C 7.332031 62.296875 7.152344 65.128906 7.929688 67.160156 C 8.792969 69.484375 11.210938 71.007813 13.539063 71.304688 C 15.238281 71.574219 16.761719 71.128906 18.3125 70.796875 C 18.519531 70.796875 18.609375 71.007813 18.699219 71.128906 C 18.847656 72.5 18.640625 73.722656 18.9375 74.976563 C 19.207031 76.136719 19.59375 76.945313 20.011719 78.078125 C 20.074219 78.464844 20.011719 78.882813 19.742188 79.183594 C 18.878906 79.839844 17.984375 80.289063 17.027344 80.707031 L 14.703125 80.855469 L 14.253906 81.066406 C 13.390625 82.078125 13.359375 83.121094 12.824219 84.257813 C 12.105469 85.449219 10.792969 86.015625 9.691406 86.703125 C 9.332031 87.269531 8.945313 87.867188 8.4375 88.3125 C 8.050781 88.671875 7.570313 88.761719 7.066406 88.820313 C 6.257813 89.746094 6.082031 91.027344 5.871094 92.28125 C 7.183594 92.402344 8.554688 93.117188 9.839844 92.402344 C 10.945313 91.894531 11.183594 90.550781 12.019531 89.746094 C 12.675781 89.03125 13.660156 89.566406 14.433594 89.714844 C 15.597656 89.777344 16.433594 88.941406 17.417969 88.550781 C 18.101563 88.105469 18.667969 87.332031 19.386719 86.882813 C 20.757813 86.226563 22.667969 86.582031 24.097656 86.851563 C 25.234375 87.148438 26.425781 86.972656 27.410156 86.523438 C 28.335938 85.957031 29.203125 85.242188 30.246094 85.003906 C 31.167969 84.523438 31.617188 83.480469 32.003906 82.617188 C 32.300781 81.808594 33.082031 81.183594 33.019531 80.257813 C 32.78125 80.050781 32.511719 79.601563 32.15625 79.628906 C 31.707031 80.257813 31.378906 80.914063 30.871094 81.511719 C 28.714844 84.457031 27.019531 84.734375 22.636719 84.734375 C 19.386719 84.613281 16.460938 85.597656 14.222656 88.132813 C 14.074219 88.226563 13.867188 88.164063 13.746094 88.046875 C 13.660156 87.6875 13.957031 87.09375 14.105469 86.824219 C 16.105469 83.992188 19.207031 83.335938 22.488281 83.277344 C 24.277344 83.15625 25.980469 82.859375 27.5 82.082031 C 29.203125 81.21875 30.363281 79.871094 31.082031 78.199219 C 31.46875 76.320313 31.617188 74.289063 32.097656 72.5 C 32.15625 72.320313 32.601563 72.1875 32.75 72.246094 C 32.929688 72.277344 33.285156 72.441406 33.285156 72.648438 C 32.957031 74.5 32.363281 76.675781 33.082031 78.464844 C 34.511719 80.347656 37.167969 79.332031 39.109375 79.242188 C 41.136719 79.0625 42.765625 79.21875 44.707031 79.339844 C 45.660156 79.3125 46.363281 79.542969 47.109375 78.949219 C 47.320313 78.617188 47.402344 78.171875 47.34375 77.816406 C 47.28125 77.28125 46.835938 76.957031 47.34375 76.507813 C 47.492188 76.386719 47.9375 76.46875 48.054688 76.617188 C 48.324219 77.363281 48.445313 78.167969 48.921875 78.824219 C 49.878906 80.050781 51.277344 81.003906 52.589844 81.691406 C 53.84375 82.554688 54.886719 83.777344 54.976563 85.300781 C 54.976563 86.078125 54.261719 86.613281 53.664063 86.972656 C 52.652344 87.476563 51.546875 87.894531 50.351563 87.777344 C 48.769531 87 48.355469 85.332031 47.308594 84.105469 C 46.773438 83.511719 45.96875 83.390625 45.164063 83.453125 C 44.296875 83.539063 43.433594 83.570313 42.65625 83.839844 C 42.449219 84.019531 42.386719 84.285156 42.417969 84.554688 C 42.953125 85.539063 43.550781 86.492188 44.148438 87.476563 C 44.835938 87.894531 45.789063 87.238281 46.386719 87.984375 C 46.890625 88.761719 47.21875 89.6875 47.996094 90.285156 C 48.742188 90.9375 49.878906 91.234375 50.859375 90.820313 C 53.066406 90.132813 55.277344 89.417969 57.335938 88.3125 L 58.019531 88.3125 C 58.855469 88.226563 59.78125 88.285156 60.378906 87.65625 C 61.035156 86.703125 61.570313 85.808594 62.078125 84.792969 C 62.585938 84.105469 62.347656 83.0625 62.136719 82.316406 C 61.125 81.066406 60.554688 79.660156 60.019531 78.226563 C 59.511719 78.078125 59.066406 77.78125 58.496094 77.808594 C 58.230469 77.929688 57.84375 77.867188 57.691406 78.167969 L 60.046875 82.824219 C 60.199219 83.179688 60.378906 83.6875 60.289063 84.164063 C 59.960938 85.152344 59.453125 86.105469 58.648438 86.824219 C 58.496094 86.910156 58.320313 87 58.199219 86.792969 C 58.46875 85.777344 58.945313 84.675781 58.886719 83.511719 L 56.589844 79.359375 C 56.320313 78.792969 55.84375 78.285156 55.871094 77.628906 C 55.871094 77.332031 56.140625 77.121094 56.378906 77.003906 C 57.394531 76.675781 58.617188 76.734375 59.394531 75.929688 C 60.40625 74.347656 60.617188 72.796875 60.886719 70.917969 C 60.949219 70.796875 61.1875 70.570313 61.367188 70.570313 C 61.542969 70.511719 61.75 70.769531 61.839844 70.859375 C 62.136719 72.917969 61.71875 75.003906 60.527344 76.617188 C 60.464844 76.824219 60.378906 77.09375 60.617188 77.242188 C 61.75 77.601563 62.941406 77.242188 63.898438 76.734375 C 65.121094 76.765625 66.253906 76.46875 67.359375 76.289063 C 67.476563 76.347656 67.597656 76.46875 67.597656 76.585938 C 66.851563 77.421875 66.433594 78.34375 66.226563 79.421875 C 65.328125 80.347656 64.046875 81.152344 63.957031 82.496094 C 64.105469 83.152344 64.671875 82.527344 65.0625 82.585938 C 65.242188 82.617188 65.359375 82.765625 65.359375 82.945313 L 64.464844 84.257813 C 63.988281 85.03125 64.554688 85.925781 64.554688 86.671875 C 64.761719 87.269531 65.480469 87.570313 66.105469 87.570313 C 67.449219 87.507813 68.644531 87 69.835938 86.582031 C 71.148438 86.015625 72.789063 86.046875 74.21875 86.285156 C 75.621094 86.195313 76.667969 85.269531 77.710938 84.34375 C 78.277344 84.34375 78.785156 84.734375 79.171875 85.152344 C 80.78125 86.882813 82.871094 87.628906 85.230469 87.570313 L 85.4375 87.449219 C 85.585938 87.300781 85.527344 87.03125 85.347656 86.910156 L 83.945313 86.195313 C 82.960938 85.570313 81.738281 84.734375 81.410156 83.628906 C 81.109375 82.644531 80.574219 81.570313 79.976563 80.617188 C 79.769531 80.140625 79.292969 79.75 79.082031 79.273438 C 79.140625 79.210938 79.203125 79.121094 79.292969 79.152344 C 80.84375 79.691406 81.769531 81.214844 82.484375 82.585938 C 83.617188 84.164063 85.257813 85.507813 87.40625 85.152344 L 87.585938 85.003906 C 87.675781 84.882813 87.644531 84.734375 87.585938 84.644531 L 86.511719 84.105469 "/>
<path style=" stroke:none;fill-rule:nonzero;fill:rgb(88.999939%,10.598755%,30.198669%);fill-opacity:1;" d="M 7.300781 87.417969 C 8.226563 86.882813 8.824219 85.867188 9.300781 85.003906 C 9.214844 84.675781 8.882813 84.433594 8.613281 84.195313 C 8.4375 84.046875 8.167969 84.164063 7.957031 84.226563 C 7.300781 84.792969 6.617188 85.242188 5.902344 85.6875 C 5.601563 85.898438 5.722656 86.34375 5.664063 86.671875 C 5.664063 86.96875 6.019531 87.179688 6.199219 87.359375 C 6.527344 87.507813 6.945313 87.539063 7.300781 87.417969 "/>
<path style=" stroke:none;fill-rule:nonzero;fill:rgb(88.999939%,10.598755%,30.198669%);fill-opacity:1;" d="M 4.171875 87.507813 C 3.695313 87.746094 3.1875 88.195313 3.066406 88.730469 C 2.917969 89.6875 3.125 90.582031 2.382813 91.269531 C 2.351563 91.445313 2.171875 91.65625 2.351563 91.835938 C 3.007813 92.042969 3.632813 92.3125 4.4375 92.402344 C 4.796875 91.234375 5.066406 89.957031 5.484375 88.941406 L 5.484375 88.640625 C 5.125 88.195313 4.765625 87.628906 4.171875 87.507813 "/>
<path style=" stroke:none;fill-rule:nonzero;fill:rgb(88.999939%,10.598755%,30.198669%);fill-opacity:1;" d="M 49.425781 84.34375 C 50.023438 85.003906 49.996094 86.015625 50.679688 86.523438 C 51.574219 86.671875 52.382813 86.316406 53.066406 85.777344 C 53.457031 85.449219 52.890625 85.03125 52.832031 84.644531 C 52.441406 84.078125 52.710938 82.945313 51.753906 82.914063 C 50.800781 83.0625 49.847656 83.09375 48.890625 83.09375 L 48.621094 83.273438 C 48.445313 83.839844 49.277344 83.839844 49.425781 84.34375 "/>
<path style=" stroke:none;fill-rule:nonzero;fill:rgb(88.999939%,10.598755%,30.198669%);fill-opacity:1;" d="M 181.167969 90.582031 C 181.019531 89.894531 181.199219 88.941406 180.75 88.3125 C 180.363281 88.015625 180.003906 87.566406 179.496094 87.6875 C 179.078125 88.046875 178.453125 88.464844 178.542969 89.089844 C 178.902344 90.164063 179.140625 90.9375 179.351563 92.042969 C 179.46875 92.25 179.351563 92.667969 179.675781 92.667969 L 181.585938 92.042969 C 181.914063 91.507813 181.289063 91.089844 181.167969 90.582031 "/>
<path style=" stroke:none;fill-rule:nonzero;fill:rgb(88.999939%,10.598755%,30.198669%);fill-opacity:1;" d="M 126.40625 56.03125 L 126.277344 56.285156 L 126.136719 56.507813 C 126.136719 56.507813 125.195313 57.382813 125.195313 57.382813 L 124.1875 58.324219 C 123.433594 59.054688 122.902344 59.675781 122.519531 60.277344 C 122.199219 60.714844 121.957031 61.226563 121.726563 61.71875 C 121.652344 61.867188 121.472656 61.871094 121.375 61.839844 C 121.375 61.839844 121.347656 61.832031 121.320313 61.820313 C 121.3125 61.796875 121.300781 61.765625 121.300781 61.765625 C 121.238281 61.578125 121.207031 61.378906 121.207031 61.15625 C 121.207031 60.992188 121.222656 60.816406 121.261719 60.621094 C 121.261719 60.621094 121.445313 59.878906 121.445313 59.878906 L 121.539063 59.542969 C 122.113281 58.019531 123.390625 56.429688 125.046875 55.1875 C 125.261719 55.050781 125.65625 54.957031 125.957031 55.050781 C 126.140625 55.109375 126.269531 55.226563 126.347656 55.40625 C 126.417969 55.53125 126.453125 55.652344 126.453125 55.773438 C 126.453125 55.859375 126.4375 55.945313 126.40625 56.03125 L 126.476563 56.058594 C 126.441406 56.042969 126.40625 56.03125 126.40625 56.03125 Z M 114.234375 72.996094 L 114.152344 73.28125 C 114.085938 73.378906 113.996094 73.492188 113.882813 73.5625 C 113.789063 73.617188 113.644531 73.664063 113.488281 73.5625 C 113.328125 73.5 113.207031 73.402344 113.101563 73.261719 C 113.101563 73.257813 112.972656 73.066406 112.972656 73.066406 L 112.863281 72.875 C 112.730469 72.644531 112.605469 72.472656 112.292969 72.496094 C 112.011719 72.480469 111.808594 72.59375 111.632813 72.71875 L 111.4375 72.863281 L 111.328125 72.945313 C 111.328125 72.945313 111.015625 73.15625 111.015625 73.15625 C 111 73.167969 110.589844 73.523438 110.589844 73.523438 L 110.402344 73.679688 C 110.402344 73.679688 109.800781 74.234375 109.800781 74.234375 C 109.367188 74.6875 109.128906 75.101563 109.054688 75.53125 C 109.054688 75.53125 108.972656 75.847656 108.972656 75.847656 C 108.976563 75.84375 108.949219 75.980469 108.949219 75.980469 L 108.914063 76.171875 C 108.867188 76.378906 108.796875 76.609375 108.585938 76.742188 C 108.441406 76.785156 108.265625 76.757813 108.128906 76.65625 C 108.019531 76.578125 107.960938 76.464844 107.960938 76.347656 C 107.839844 74.90625 108.34375 73.5625 109.34375 72.648438 C 109.851563 72.234375 110.28125 71.730469 110.632813 71.292969 C 110.632813 71.292969 111.023438 70.796875 111.023438 70.796875 L 111.808594 69.828125 L 111.894531 69.78125 C 112.464844 69.671875 112.820313 70.175781 112.945313 70.402344 C 113.4375 71.039063 113.839844 71.753906 114.210938 72.667969 C 114.230469 72.730469 114.242188 72.796875 114.242188 72.871094 C 114.242188 72.910156 114.238281 72.953125 114.234375 72.996094 Z M 113.550781 83.324219 L 113.53125 83.363281 C 113.335938 83.5 113.09375 83.554688 112.757813 83.542969 L 112.1875 83.472656 L 112 83.445313 L 111.957031 83.433594 C 111.386719 83.113281 111.246094 82.464844 111.179688 81.8125 C 111.183594 81.589844 111.253906 81.421875 111.402344 81.300781 C 111.402344 81.300781 111.421875 81.289063 111.4375 81.277344 L 111.476563 81.277344 C 112.261719 81.277344 112.855469 81.511719 113.238281 81.972656 C 113.238281 81.972656 113.257813 82.007813 113.257813 82.007813 C 113.257813 82.007813 113.375 82.238281 113.375 82.238281 L 113.550781 82.605469 L 113.621094 82.582031 C 113.585938 82.59375 113.550781 82.609375 113.550781 82.609375 C 113.605469 82.746094 113.632813 82.871094 113.632813 82.988281 C 113.632813 83.105469 113.605469 83.21875 113.550781 83.324219 Z M 177.113281 89.03125 C 175.589844 89.121094 174.84375 87.476563 173.949219 86.523438 C 173.203125 85.65625 171.742188 85.152344 171.769531 83.867188 C 171.503906 83.359375 171.441406 82.554688 171.203125 81.898438 C 170.996094 81.363281 170.785156 80.585938 170.070313 80.46875 C 168.785156 80.257813 167.234375 80.617188 166.429688 79.421875 C 165.597656 78.527344 166.519531 77.480469 166.671875 76.617188 C 167.027344 75.511719 167.058594 74.050781 166.878906 72.917969 C 166.847656 72.261719 166.402344 71.722656 166.519531 71.066406 C 166.820313 70.5 167.535156 70.917969 167.980469 70.976563 C 169.652344 71.457031 171.621094 71.21875 173.144531 70.558594 C 175.230469 69.546875 176.902344 67.425781 176.8125 65.011719 C 176.515625 61.878906 174.277344 59.3125 171.859375 57.285156 C 171.414063 56.894531 170.847656 56.476563 170.695313 55.910156 C 170.636719 54.6875 172.007813 55.285156 172.695313 54.988281 C 173.53125 54.777344 174.367188 54.570313 175.054688 54.09375 C 176.871094 52.867188 177.261719 50.71875 176.902344 48.632813 C 176.84375 48.453125 176.84375 48.183594 176.574219 48.183594 C 176.246094 48.453125 175.917969 48.839844 175.5 49.082031 C 174.339844 49.765625 172.785156 49.648438 171.5625 50.242188 C 170.039063 50.898438 168.160156 51.824219 167.503906 53.554688 C 167.324219 54.421875 167.535156 55.316406 167.921875 56.03125 C 169.773438 58.953125 173.679688 60.863281 174.304688 64.386719 C 174.546875 65.816406 173.828125 66.859375 172.726563 67.667969 C 171.054688 68.679688 168.546875 68.324219 166.878906 67.425781 C 163.65625 65.816406 160.851563 63.132813 157.390625 62.027344 C 155.214844 61.042969 152.527344 61.28125 150.589844 59.757813 C 149.128906 58.804688 147.785156 57.550781 146.144531 57.136719 C 145.011719 56.746094 143.726563 56.808594 142.683594 56.238281 C 141.609375 55.285156 140.476563 54.390625 139.222656 53.765625 C 137.492188 52.898438 135.585938 52.453125 133.675781 52.035156 C 132.539063 51.765625 132.121094 50.511719 131.195313 49.886719 C 129.613281 48.632813 127.855469 47.738281 125.707031 47.914063 C 124.8125 47.976563 124.128906 48.574219 123.441406 49.167969 C 118.875 53.167969 113.65625 55.910156 109.480469 60.476563 C 106.675781 63.371094 105.929688 67.039063 104.882813 70.589844 C 103.390625 75.960938 102.765625 81.867188 97.367188 85.179688 C 97.277344 85.332031 97.277344 85.597656 97.453125 85.71875 C 98.886719 86.078125 100.289063 85.507813 101.242188 84.523438 C 102.167969 83.0625 103.152344 81.660156 104.40625 80.320313 L 104.703125 80.167969 C 104.855469 80.199219 105.03125 80.289063 104.972656 80.496094 C 104.613281 81.691406 103.539063 82.554688 103.183594 83.75 C 102.707031 85.179688 101.332031 86.285156 100.167969 87.300781 L 100.140625 87.476563 C 100.140625 87.628906 100.289063 87.777344 100.4375 87.804688 C 103.0625 87.925781 104.945313 86.046875 106.703125 84.285156 C 106.882813 84.105469 107.121094 84.136719 107.359375 84.195313 C 108.136719 84.792969 108.851563 85.6875 109.867188 85.898438 C 110.941406 85.746094 112.074219 85.597656 113.207031 85.6875 C 114.789063 86.164063 116.3125 86.824219 117.890625 87.359375 C 118.695313 87.332031 119.292969 86.554688 119.710938 85.898438 C 120.039063 85.121094 119.5625 84.34375 119.621094 83.601563 C 120.011719 83.359375 120.457031 83.660156 120.875 83.539063 C 121.054688 83.421875 121.203125 83.210938 121.203125 83.003906 C 120.90625 81.632813 119.679688 80.617188 119.292969 79.332031 C 118.695313 77.691406 116.757813 76.707031 116.398438 74.945313 C 116.488281 74.828125 116.636719 74.648438 116.789063 74.765625 C 118.070313 75.691406 119.203125 76.914063 120.785156 77.152344 C 121.980469 77.273438 123.199219 77.390625 124.394531 77.300781 C 124.574219 77.242188 124.722656 77.03125 124.664063 76.824219 C 124.15625 75.753906 123.679688 74.675781 123.378906 73.515625 C 122.964844 72.050781 122.664063 70.023438 123.140625 68.414063 C 123.230469 68.292969 123.617188 68.0625 123.796875 68.121094 C 124.035156 68.183594 124.332031 68.472656 124.363281 68.679688 C 124.539063 71.21875 124.277344 73.542969 125.796875 75.542969 C 126.453125 76.585938 127.585938 76.792969 128.394531 77.601563 C 128.691406 78.019531 128.75 78.703125 128.542969 79.183594 L 126.722656 81.867188 C 126.304688 82.464844 125.886719 83.121094 125.738281 83.78125 C 125.589844 84.523438 125.675781 85.242188 125.738281 85.957031 C 125.617188 86.015625 125.558594 85.835938 125.4375 85.777344 C 124.960938 84.792969 124.425781 83.539063 124.933594 82.378906 L 127.230469 78.824219 L 127.316406 78.554688 C 126.8125 78.285156 126.242188 78.019531 125.707031 77.898438 C 125.4375 78.019531 125.261719 78.285156 125.082031 78.527344 L 122.84375 82.585938 C 122.695313 83.0625 122.546875 83.421875 122.664063 83.929688 C 122.785156 84.523438 122.933594 85.121094 123.199219 85.628906 C 123.378906 86.464844 123.53125 87.03125 123.917969 87.777344 C 124.484375 88.402344 125.261719 87.835938 125.976563 88.015625 C 126.691406 88.195313 126.960938 89.058594 127.675781 89.269531 C 129.289063 89.804688 131.019531 90.105469 132.628906 90.730469 C 133.464844 91 134.65625 91.328125 135.402344 90.640625 C 136.449219 90.074219 136.71875 88.96875 136.894531 87.925781 C 137.222656 87.476563 137.878906 87.65625 138.355469 87.507813 C 139.253906 86.910156 139.550781 85.835938 140.207031 85.03125 L 140.324219 84.613281 C 140.234375 84.34375 139.996094 84.195313 139.757813 84.105469 L 136.71875 84.105469 C 135.3125 84.285156 135.195313 85.835938 134.597656 86.792969 C 134.269531 87.390625 133.613281 87.628906 132.929688 87.566406 C 131.496094 87.179688 129.734375 86.96875 129.078125 85.417969 C 128.988281 85.03125 128.988281 84.554688 129.289063 84.285156 C 130.03125 83.421875 130.929688 82.4375 131.851563 81.71875 C 133.164063 81.453125 134.449219 80.46875 135.136719 79.300781 C 135.492188 78.792969 135.433594 78.046875 136.03125 77.660156 C 136.210938 77.628906 136.609375 77.617188 136.726563 77.796875 C 136.996094 78.660156 136.511719 79.28125 136.242188 80.03125 C 139.496094 80.359375 142.015625 79.417969 145.179688 79.535156 C 146.519531 79.535156 147.726563 79.691406 149.039063 79.601563 C 150.351563 79.542969 151.78125 79.003906 152.199219 77.628906 C 152.796875 75.871094 151.964844 73.871094 151.664063 72.203125 L 152.027344 71.917969 C 152.234375 71.796875 152.589844 71.960938 152.738281 72.082031 C 153.304688 73.664063 153.691406 75.574219 153.929688 77.300781 C 154.167969 78.824219 154.824219 79.816406 155.660156 81.097656 C 157.183594 83.363281 159.867188 84.257813 162.523438 83.691406 C 165.746094 83.453125 168.519531 85.152344 170.488281 87.65625 L 170.488281 87.804688 C 170.429688 87.925781 170.308594 88.074219 170.160156 88.046875 C 168.460938 86.730469 166.757813 85.332031 164.578125 85.0625 C 162.378906 84.660156 160.402344 85.808594 158.105469 84.882813 C 155.339844 83.972656 154.175781 82.265625 153.003906 79.542969 L 152.765625 79.542969 C 152.589844 79.570313 152.46875 79.75 152.4375 79.929688 L 152.738281 81.78125 C 153.097656 83.273438 153.574219 85.03125 155.183594 85.71875 C 156.4375 86.464844 157.660156 87.539063 159.210938 87.121094 C 161.925781 86.523438 164.671875 87.300781 166.757813 88.820313 C 167.445313 89.207031 167.980469 89.925781 168.726563 90.195313 C 169.53125 90.519531 170.519531 90.339844 171.175781 89.804688 C 172.695313 89.296875 173.054688 91.207031 174.097656 91.894531 C 175.023438 92.789063 176.871094 92.417969 178.09375 92.417969 L 178.066406 92.28125 C 177.917969 91.058594 177.589844 90.105469 177.113281 89.03125 "/>
<path style=" stroke:none;fill-rule:nonzero;fill:rgb(88.999939%,10.598755%,30.198669%);fill-opacity:1;" d="M 133.941406 83.453125 C 133.136719 83.601563 132.210938 83.421875 131.40625 83.539063 C 131.046875 84.078125 130.71875 84.734375 130.808594 85.449219 C 130.898438 86.195313 131.734375 86.253906 132.269531 86.464844 C 132.777344 86.523438 133.523438 86.703125 133.792969 86.164063 C 134.089844 85.390625 134.359375 84.554688 134.480469 83.71875 C 134.421875 83.480469 134.179688 83.390625 133.941406 83.453125 "/>
<path style=" stroke:none;fill-rule:nonzero;fill:rgb(88.999939%,10.598755%,30.198669%);fill-opacity:1;" d="M 176.335938 84.375 C 175.738281 83.867188 175.113281 84.613281 174.8125 85.0625 C 175.023438 85.777344 175.617188 86.375 176.066406 87.03125 C 176.304688 87.390625 176.691406 87.628906 177.113281 87.65625 C 177.527344 87.65625 177.855469 87.449219 178.15625 87.210938 C 178.363281 86.941406 178.601563 86.613281 178.515625 86.226563 C 177.945313 85.449219 177.050781 84.972656 176.335938 84.375 "/>
<path style=" stroke:none;fill-rule:nonzero;fill:rgb(0%,10.198975%,29.399109%);fill-opacity:1;" d="M 62.398438 112.449219 L 64.347656 113.914063 L 69.21875 107.4375 L 67.269531 105.972656 Z M 56.066406 120.875 L 58.015625 122.339844 L 62.882813 115.863281 L 60.933594 114.398438 Z M 66.785156 102.558594 L 70.679688 105.488281 C 71.761719 106.296875 71.976563 107.820313 71.164063 108.902344 L 66.691406 114.851563 C 66.019531 115.746094 65.367188 115.792969 64.695313 115.699219 C 65.03125 116.242188 65.128906 116.933594 64.257813 118.089844 L 59.964844 123.804688 C 59.152344 124.886719 57.628906 125.101563 56.550781 124.289063 L 52.652344 121.359375 L 66.785156 102.558594 "/>
<path style=" stroke:none;fill-rule:nonzero;fill:rgb(0%,10.198975%,29.399109%);fill-opacity:1;" d="M 74.390625 119.40625 L 76.675781 120.257813 L 79.5 112.660156 L 77.214844 111.8125 Z M 75.777344 108.675781 L 80.347656 110.375 C 81.613281 110.847656 82.253906 112.242188 81.785156 113.507813 L 79.191406 120.488281 C 78.800781 121.539063 78.1875 121.769531 77.519531 121.871094 C 77.992188 122.292969 78.285156 122.925781 77.78125 124.285156 L 75.050781 131.636719 C 74.820313 132.253906 74.894531 132.808594 74.996094 133.476563 L 72.652344 132.605469 C 72.574219 132.050781 72.558594 131.34375 72.765625 130.785156 L 75.828125 122.542969 L 73.542969 121.691406 L 69.871094 131.574219 L 67.585938 130.726563 L 75.777344 108.675781 "/>
<path style=" stroke:none;fill-rule:nonzero;fill:rgb(0%,10.198975%,29.399109%);fill-opacity:1;" d="M 87.492188 122.660156 L 89.921875 122.859375 L 90.59375 114.785156 L 88.164063 114.582031 Z M 85.648438 115.398438 C 85.816406 113.394531 87.59375 111.890625 89.597656 112.058594 C 91.597656 112.222656 93.105469 114.003906 92.9375 116.003906 L 91.277344 135.996094 L 88.847656 135.796875 L 89.71875 125.289063 L 87.289063 125.089844 L 86.417969 135.59375 L 83.988281 135.390625 L 85.648438 115.398438 "/>
<path style=" stroke:none;fill-rule:nonzero;fill:rgb(0%,10.198975%,29.399109%);fill-opacity:1;" d="M 100.257813 129.253906 L 102.636719 128.71875 L 103.445313 132.316406 L 105.824219 131.78125 L 104.046875 123.878906 L 101.667969 124.410156 C 100.351563 124.707031 99.050781 123.886719 98.757813 122.566406 L 97.203125 115.65625 C 96.761719 113.695313 98.007813 111.726563 99.96875 111.289063 C 101.925781 110.847656 103.894531 112.09375 104.335938 114.054688 L 104.921875 116.65625 L 102.542969 117.191406 L 101.734375 113.589844 L 99.355469 114.125 L 101.132813 122.03125 L 103.511719 121.496094 C 104.828125 121.203125 106.128906 122.023438 106.425781 123.339844 L 107.976563 130.253906 C 108.417969 132.214844 107.171875 134.179688 105.214844 134.621094 C 103.253906 135.0625 101.285156 133.816406 100.84375 131.855469 L 100.257813 129.253906 "/>
<path style=" stroke:none;fill-rule:nonzero;fill:rgb(0%,10.198975%,29.399109%);fill-opacity:1;" d="M 107.34375 109.207031 L 109.535156 108.144531 L 119.773438 129.320313 L 117.578125 130.378906 L 107.34375 109.207031 "/>
<path style=" stroke:none;fill-rule:nonzero;fill:rgb(0%,10.198975%,29.399109%);fill-opacity:1;" d="M 113.382813 106.003906 L 115.242188 104.425781 L 128.882813 120.5 L 130.738281 118.921875 L 127.585938 115.207031 L 129.445313 113.628906 L 134.175781 119.203125 L 128.601563 123.933594 L 113.382813 106.003906 "/>
</g>
</svg>
